<svg xmlns="http://www.w3.org/2000/svg"
xmlns:xlink="http://www.w3.org/1999/xlink"
width="260" height="333" viewbox="0 0 260 333"
preserveAspectRatio="none">



<g id="g2276">
<g id="g2260">
  <g transform="translate(-429.3978,-46.15219)" id="basket">
<path d="M436.24599,213.10345 C561.62406,213.10345 561.62406,213.6022 561.62406,213.6022"
   style="fill:none;fill-opacity:0.75;stroke:#000000;stroke-width:14.15241528;stroke-linecap:round;stroke-linejoin:miter;stroke-miterlimit:4;stroke-dasharray:none"
   id="path2280" />
<path d="M557.78876,218.91001 L 542.68453,372.22476 L 469.32953,372.22476 C441.00512,218.58969 441.00512,218.58969 441.00512,218.58969"
   style="fill:none;fill-opacity:0.75;stroke:#000000;stroke-width:9;stroke-linecap:butt;stroke-linejoin:round;stroke-miterlimit:4;stroke-dasharray:none"
   id="path1405" />
<path d="M445.07021,242.52961 C556.29108,242.52961 556.29108,242.52961 556.29108,242.52961"
   style="fill:none;fill-opacity:0.75;stroke:#000000;stroke-width:8;stroke-linecap:butt;stroke-linejoin:miter;stroke-miterlimit:4;stroke-dasharray:none"
   id="path7527" />
<path d="M552.30109,269.96077 C450.55644,269.96077 450.55644,269.96077 450.55644,269.96077"
   style="fill:none;fill-opacity:0.75;stroke:#000000;stroke-width:8;stroke-linecap:butt;stroke-linejoin:miter;stroke-miterlimit:4;stroke-dasharray:none"
   id="path7529" />
<path d="M455.04518,294.89818 C549.80735,294.89818 549.80735,294.89818 549.80735,294.89818"
   style="fill:none;fill-opacity:0.75;stroke:#000000;stroke-width:8;stroke-linecap:butt;stroke-linejoin:miter;stroke-miterlimit:4;stroke-dasharray:none"
   id="path7535" />
<path d="M460.03266,319.83559 C547.31361,319.83559 547.31361,320.83309 547.31361,320.83309"
   style="fill:none;fill-opacity:0.75;stroke:#000000;stroke-width:8;stroke-linecap:butt;stroke-linejoin:miter;stroke-miterlimit:4;stroke-dasharray:none"
   id="path7539" />
<path d="M544.81987,346.768 C464.5214,346.768 464.5214,346.768 464.5214,346.768"
   style="fill:none;fill-opacity:0.75;stroke:#000000;stroke-width:8;stroke-linecap:butt;stroke-linejoin:miter;stroke-miterlimit:4;stroke-dasharray:none"
   id="path7541" />
<path d="M468.51138,213.60221 C487.96256,370.70792 487.96256,370.70792 487.96256,370.70792"
   style="fill:none;fill-opacity:0.75;stroke:#000000;stroke-width:8;stroke-linecap:butt;stroke-linejoin:miter;stroke-miterlimit:4;stroke-dasharray:none"
   id="path7543" />
<path d="M504.92001,370.20917 C499.93252,214.10096 499.93252,214.10096 499.93252,214.10096"
   style="fill:none;fill-opacity:0.75;stroke:#000000;stroke-width:8;stroke-linecap:butt;stroke-linejoin:miter;stroke-miterlimit:4;stroke-dasharray:none"
   id="path7545" />
<path d="M530.35617,214.59971 C524.37119,371.70542 524.37119,371.70542 524.37119,371.70542"
   style="fill:none;fill-opacity:0.75;stroke:#000000;stroke-width:8;stroke-linecap:butt;stroke-linejoin:miter;stroke-miterlimit:4;stroke-dasharray:none"
   id="path7547" />
  </g>
  <g
 id="g2256">
<path d="M28.19667,137.94925 C55.62783,124.23366 55.43226,102.41514 57.62282,103.28624 C83.64992,113.63613 108.37046,116.75245 124.3304,113.2612 C77.96867,148.62463 101.55947,150.23983 95.15362,147.92421 C75.46485,140.80702 46.89973,162.13853 28.19667,137.94925 z "
   style="fill:none;fill-opacity:0.75;stroke:#000000;stroke-width:6;stroke-linecap:round;stroke-linejoin:round;stroke-miterlimit:4;stroke-dasharray:none"
   id="path9309" />
<path d="M77.070252,109.54516 C102.35731,109.57325 103.07704,101.5139 107.74703,99.54061 C108.07088,99.40377 110.37647,110.27104 116.7245,114.50306"
   style="fill:none;fill-opacity:0.75;stroke:#000000;stroke-width:6;stroke-linecap:butt;stroke-linejoin:miter;stroke-miterlimit:4;stroke-dasharray:none"
   id="path11057" />
  </g>
</g>
<g transform="translate(-46.6017,-41.17205)" id="person">
  <g transform="translate(-0.254381,-0.249374)" id="body">
<path d="M105.72962,105.73794 L 265.82782,106.19391 C279.33555,121.77531 301.96416,174.61228 303.67219,186.78453 L 223.93296,190.77452 C221.68859,164.59023 209.21989,140.15157 207.47427,136.41096 L 105.72962,105.73794 z "
   style="fill:#000000;stroke:#000000;stroke-width:5;stroke-linecap:round;stroke-linejoin:round;stroke-miterlimit:4;stroke-dasharray:none"
   id="upper body" />
<path d="M223.29453,196.2385 L 196.06342,371.32946 L 258.64952,256.13916 L 286.22183,371.78542 L 302.87654,198.67694 L 223.29453,196.2385 z "
   style="fill:#000000;stroke:#000000;stroke-width:5;stroke-linecap:round;stroke-linejoin:round;stroke-miterlimit:4;stroke-dasharray:none"
   id="lower body" />
  </g>

</g>
  </g>


<circle r="31" cx="187" cy="30" fill="black" stroke="none" />

</svg>
