<?xml version="1.0" encoding="UTF-8" standalone="no"?>
<!-- Created with Inkscape (http://www.inkscape.org/) -->

<svg
   xmlns:dc="http://purl.org/dc/elements/1.1/"
   xmlns:cc="http://creativecommons.org/ns#"
   xmlns:rdf="http://www.w3.org/1999/02/22-rdf-syntax-ns#"
   xmlns:svg="http://www.w3.org/2000/svg"
   xmlns="http://www.w3.org/2000/svg"
   xmlns:xlink="http://www.w3.org/1999/xlink"
   xmlns:sodipodi="http://sodipodi.sourceforge.net/DTD/sodipodi-0.dtd"
   xmlns:inkscape="http://www.inkscape.org/namespaces/inkscape"
   width="288"
   height="16"
   viewBox="0 0 288 16"
   id="svg2"
   version="1.1"
   inkscape:version="0.91 r13725"
   sodipodi:docname="icons.svg"
   inkscape:export-filename="C:\Users\jacobsj\Documents\GitHub\arcgis-js-draw-ui\arcgis-draw-ui\icons.png"
   inkscape:export-xdpi="90"
   inkscape:export-ydpi="90">
  <defs
     id="defs4">
    <marker
       inkscape:stockid="Arrow1Sstart"
       orient="auto"
       refY="0.0"
       refX="0.0"
       id="Arrow1Sstart"
       style="overflow:visible"
       inkscape:isstock="true">
      <path
         id="path4269"
         d="M 0.0,0.0 L 5.0,-5.0 L -12.5,0.0 L 5.0,5.0 L 0.0,0.0 z "
         style="fill-rule:evenodd;stroke:#000000;stroke-width:1pt;stroke-opacity:1;fill:#000000;fill-opacity:1"
         transform="scale(0.2) translate(6,0)" />
    </marker>
    <marker
       inkscape:stockid="Arrow1Mstart"
       orient="auto"
       refY="0.0"
       refX="0.0"
       id="Arrow1Mstart"
       style="overflow:visible"
       inkscape:isstock="true">
      <path
         id="path4263"
         d="M 0.0,0.0 L 5.0,-5.0 L -12.5,0.0 L 5.0,5.0 L 0.0,0.0 z "
         style="fill-rule:evenodd;stroke:#000000;stroke-width:1pt;stroke-opacity:1;fill:#000000;fill-opacity:1"
         transform="scale(0.4) translate(10,0)" />
    </marker>
  </defs>
  <sodipodi:namedview
     id="base"
     pagecolor="#ffffff"
     bordercolor="#666666"
     borderopacity="1.0"
     inkscape:pageopacity="0.0"
     inkscape:pageshadow="2"
     inkscape:zoom="31.874198"
     inkscape:cx="242.51538"
     inkscape:cy="5.4681197"
     inkscape:document-units="px"
     inkscape:current-layer="layer1"
     showgrid="true"
     units="px"
     inkscape:window-width="2560"
     inkscape:window-height="1365"
     inkscape:window-x="-9"
     inkscape:window-y="-9"
     inkscape:window-maximized="1"
     showguides="true"
     inkscape:guide-bbox="true">
    <sodipodi:guide
       position="16,8"
       orientation="1,0"
       id="guide4136"
       inkscape:label=""
       inkscape:color="rgb(0,0,255)" />
    <sodipodi:guide
       position="32,8"
       orientation="1,0"
       id="guide4138"
       inkscape:label=""
       inkscape:color="rgb(0,0,255)" />
    <sodipodi:guide
       position="48,8"
       orientation="1,0"
       id="guide4140"
       inkscape:label=""
       inkscape:color="rgb(0,0,255)" />
    <sodipodi:guide
       position="64,8"
       orientation="1,0"
       id="guide4142"
       inkscape:label=""
       inkscape:color="rgb(0,0,255)" />
    <sodipodi:guide
       position="80,8"
       orientation="1,0"
       id="guide4144"
       inkscape:label=""
       inkscape:color="rgb(0,0,255)" />
    <sodipodi:guide
       position="96,8"
       orientation="1,0"
       id="guide4146"
       inkscape:label=""
       inkscape:color="rgb(0,0,255)" />
    <sodipodi:guide
       position="112,8"
       orientation="1,0"
       id="guide4148"
       inkscape:label=""
       inkscape:color="rgb(0,0,255)" />
    <sodipodi:guide
       position="128,8"
       orientation="1,0"
       id="guide4150"
       inkscape:label=""
       inkscape:color="rgb(0,0,255)" />
    <sodipodi:guide
       position="0,0"
       orientation="0,272"
       id="guide4152" />
    <sodipodi:guide
       position="272,0"
       orientation="-16,0"
       id="guide4154" />
    <sodipodi:guide
       position="272,16"
       orientation="0,-272"
       id="guide4156" />
    <sodipodi:guide
       position="0,16"
       orientation="16,0"
       id="guide4158" />
    <sodipodi:guide
       position="144,8"
       orientation="1,0"
       id="guide4160"
       inkscape:label=""
       inkscape:color="rgb(0,0,255)" />
    <sodipodi:guide
       position="160,8"
       orientation="1,0"
       id="guide4162"
       inkscape:label=""
       inkscape:color="rgb(0,0,255)" />
    <sodipodi:guide
       position="176,8"
       orientation="1,0"
       id="guide4164"
       inkscape:label=""
       inkscape:color="rgb(0,0,255)" />
    <sodipodi:guide
       position="192,8"
       orientation="1,0"
       id="guide4166"
       inkscape:label=""
       inkscape:color="rgb(0,0,255)" />
    <sodipodi:guide
       position="208,0"
       orientation="1,0"
       id="guide4168" />
    <inkscape:grid
       type="xygrid"
       id="grid4170"
       spacingx="16"
       spacingy="16" />
    <sodipodi:guide
       position="224,16"
       orientation="1,0"
       id="guide4174" />
    <sodipodi:guide
       position="240,16"
       orientation="1,0"
       id="guide4176" />
    <sodipodi:guide
       position="256,0"
       orientation="1,0"
       id="guide4178" />
    <inkscape:grid
       type="xygrid"
       id="grid4180"
       spacingx="1"
       spacingy="1"
       empspacing="4"
       dotted="false" />
    <sodipodi:guide
       position="288,16"
       orientation="1,0"
       id="guide4190"
       inkscape:label="end"
       inkscape:color="rgb(0,0,255)" />
  </sodipodi:namedview>
  <metadata
     id="metadata7">
    <rdf:RDF>
      <cc:Work
         rdf:about="">
        <dc:format>image/svg+xml</dc:format>
        <dc:type
           rdf:resource="http://purl.org/dc/dcmitype/StillImage" />
        <dc:title></dc:title>
      </cc:Work>
    </rdf:RDF>
  </metadata>
  <g
     inkscape:label="Layer 1"
     inkscape:groupmode="layer"
     id="layer1"
     transform="translate(0,-1036.3622)">
    <circle
       cx="8"
       cy="1044.4514"
       r="1"
       id="multipointpart"
       style="fill:none;stroke:#000000;stroke-opacity:1;stroke-linejoin:miter" />
    <path
       style="fill-rule:evenodd;fill:none;stroke:#000000;stroke-opacity:1;stroke-linejoin:miter"
       d="m 33,1051.3622 14,-14"
       id="lineicon"
       inkscape:connector-curvature="0" />
    <path
       style="fill-rule:evenodd;fill:none;stroke:#000000;stroke-opacity:1;stroke-linejoin:miter"
       d="m 52,1037.3622 8,1 0,3 -5,1 -3,2 -1,3 5,4"
       id="polylineicon"
       inkscape:connector-curvature="0" />
    <path
       style="fill-rule:evenodd;fill:none;stroke:#000000;stroke-opacity:1;stroke-linejoin:miter"
       d="m 68,1042.3622 c -2.533457,-5.4093 7.059987,-5.9547 7.876073,-0.2421 0.5313,3.7191 -8.713151,1.9564 -6.028599,5.8341 1.431395,2.0676 8.540142,0.01 6.152526,2.408"
       id="freehandpolylineicon"
       inkscape:connector-curvature="0" />
    <path
       sodipodi:type="star"
       id="polygonicon"
       sodipodi:sides="5"
       sodipodi:cx="88"
       sodipodi:cy="1044.3622"
       sodipodi:r1="7.0710678"
       sodipodi:r2="3.5355339"
       sodipodi:arg1="-0.78539816"
       sodipodi:arg2="-0.15707963"
       inkscape:flatsided="false"
       inkscape:rounded="0"
       inkscape:randomized="0"
       d="m 93,1039.3622 -1.507994,4.4469 2.808362,3.7633 -4.695269,-0.06 -2.711258,3.8338 -1.393841,-4.484 -4.484011,-1.3939 3.833827,-2.7112 -0.06001,-4.6953 3.763277,2.8084 z"
       inkscape:transform-center-x="0.34182184"
       inkscape:transform-center-y="0.34182184"
       style="fill:none;stroke:#000000;stroke-opacity:1;stroke-linejoin:miter" />
    <path
       style="fill:none;fill-opacity:1;fill-rule:evenodd;stroke:#000000;stroke-linejoin:miter;stroke-opacity:1"
       d="m 100.08771,1039.8664 c 2.54911,-0.8082 5.21597,-1.1899 7.88555,-1.2517 0.64272,0.016 1.36349,-0.1566 1.95536,-0.1042 -0.0692,0.8497 -0.46753,1.6385 -0.74103,2.4389 -0.33001,0.942 -0.80476,1.8344 -1.06755,2.7976 -0.31288,1.2432 0.23335,2.4683 0.84721,3.5217 0.54988,1.0015 1.08115,2.156 0.84624,3.3226 -0.24902,0.69 -1.12027,0.5247 -1.66199,0.3397 -0.68439,-0.2256 -1.32069,-0.5722 -1.93987,-0.936 -0.72753,-0.1795 -1.59942,-0.4168 -2.23653,0.1273 -0.93765,0.6651 -2.0392,1.0427 -3.14192,1.3323 0.0733,-1.6973 0.10544,-3.4153 0.47862,-5.0789 0.37277,-0.5646 0.49084,-1.2674 0.0154,-1.8358 -0.73664,-1.2181 -1.915756,-2.1348 -2.495253,-3.4498 -0.314157,-0.6581 0.39542,-1.1547 0.986081,-1.1831 0.08943,-0.016 0.179431,-0.03 0.269692,-0.041 z"
       id="freehandpolygonicon"
       inkscape:connector-curvature="0" />
    <circle
       style="fill-opacity:1;fill:none;stroke:#000000;stroke-opacity:1;stroke-linejoin:miter"
       id="circleicon"
       cx="120"
       cy="1044.3622"
       r="7" />
    <ellipse
       style="fill-opacity:1;fill:none;stroke:#000000;stroke-opacity:1;stroke-linejoin:miter"
       id="ellipseicon"
       cx="136"
       cy="1044.3622"
       rx="7"
       ry="3" />
    <path
       sodipodi:type="star"
       style="fill:none;fill-opacity:1;stroke:#000000;stroke-linejoin:miter;stroke-opacity:1"
       id="triangleicon"
       sodipodi:sides="3"
       sodipodi:cx="152"
       sodipodi:cy="1046.3622"
       sodipodi:r1="7"
       sodipodi:r2="3.5"
       sodipodi:arg1="-1.5707963"
       sodipodi:arg2="-0.52359878"
       inkscape:flatsided="false"
       inkscape:rounded="0"
       inkscape:randomized="0"
       d="m 152,1039.3622 3.03109,5.25 3.03109,5.25 -6.06218,0 -6.06218,0 3.03109,-5.25 z"
       inkscape:transform-center-y="-1.75" />
    <path
       style="fill-opacity:1;fill-rule:evenodd;fill:none;stroke:#000000;stroke-opacity:1;stroke-linejoin:miter"
       d="m 184.07626,1038.0124 -4,5 2,0 0,8 4,0 0,-8 2,0 -4,-5 z"
       id="uparrowicon"
       inkscape:connector-curvature="0" />
    <use
       style="fill-opacity:1;fill:none;stroke:#000000;stroke-opacity:1;stroke-linejoin:miter"
       x="0"
       y="0"
       xlink:href="#uparrowicon"
       id="anyarrowicon"
       transform="matrix(0.68545105,0.72811871,-0.72811871,0.68545105,802.56852,193.56351)"
       width="100%"
       height="100%" />
    <use
       style="fill-opacity:1;fill:none;stroke:#000000;stroke-opacity:1;stroke-linejoin:miter"
       x="0"
       y="0"
       xlink:href="#uparrowicon"
       id="downarrowicon"
       transform="matrix(1,0,0,-1,15.946616,2088.8216)"
       width="100%"
       height="100%" />
    <use
       style="fill-opacity:1;fill:none;stroke:#000000;stroke-opacity:1;stroke-linejoin:miter"
       x="0"
       y="0"
       xlink:href="#uparrowicon"
       id="leftarrowicon"
       transform="matrix(0,-1,1,0,-828.28361,1228.3294)"
       width="100%"
       height="100%" />
    <use
       style="fill-opacity:1;fill:none;stroke:#000000;stroke-opacity:1;stroke-linejoin:miter"
       x="0"
       y="0"
       xlink:href="#uparrowicon"
       id="rightarrowicon"
       transform="matrix(0,1,-1,0,1276.5581,860.30649)"
       width="100%"
       height="100%" />
    <rect
       style="fill-opacity:1;fill:none;stroke:#000000;stroke-opacity:1;stroke-linejoin:miter"
       id="rectangleicon"
       width="12"
       height="8"
       x="258"
       y="1039.3622" />
    <g
       id="multipointicon"
       style="fill:none;stroke:#000000;stroke-opacity:1;stroke-linejoin:miter">
      <use
         style="fill:none;stroke:#000000;stroke-opacity:1;stroke-linejoin:miter"
         height="100%"
         width="100%"
         transform="translate(19.708151,-5.8622799)"
         id="use4231"
         xlink:href="#multipointpart"
         y="0"
         x="0" />
      <use
         style="fill:none;stroke:#000000;stroke-opacity:1;stroke-linejoin:miter"
         height="100%"
         width="100%"
         transform="translate(0.09723547,3.6949476)"
         id="use4233"
         xlink:href="#use4231"
         y="0"
         x="0" />
      <use
         style="fill:none;stroke:#000000;stroke-opacity:1;stroke-linejoin:miter"
         height="100%"
         width="100%"
         transform="translate(-3.7921831,0.06482364)"
         id="use4235"
         xlink:href="#use4233"
         y="0"
         x="0" />
      <use
         style="fill:none;stroke:#000000;stroke-opacity:1;stroke-linejoin:miter"
         height="100%"
         width="100%"
         transform="translate(-2.3984747,2.0743565)"
         id="use4237"
         xlink:href="#use4235"
         y="0"
         x="0" />
      <use
         style="fill:none;stroke:#000000;stroke-opacity:1;stroke-linejoin:miter"
         height="100%"
         width="100%"
         transform="translate(-0.55100095,3.7273594)"
         id="use4239"
         xlink:href="#use4237"
         y="0"
         x="0" />
      <use
         style="fill:none;stroke:#000000;stroke-opacity:1;stroke-linejoin:miter"
         height="100%"
         width="100%"
         transform="translate(3.5653003,2.3660629)"
         id="use4241"
         xlink:href="#use4239"
         y="0"
         x="0" />
      <use
         height="100%"
         width="100%"
         transform="translate(15.515904,-6.3484572)"
         id="use4217"
         xlink:href="#multipointpart"
         y="0"
         x="0"
         style="fill:none;stroke:#000000;stroke-opacity:1;stroke-linejoin:miter" />
    </g>
    <path
       id="clearicon"
       style="fill:none;fill-rule:evenodd;stroke:#000000;stroke-width:1px;stroke-linecap:butt;stroke-linejoin:miter;stroke-opacity:1"
       d="m 286,1037.3622 -12,14 m 0,-14 12,14"
       inkscape:connector-curvature="0" />
    <path
       id="extenthandle-0"
       style="fill:none;fill-opacity:1;stroke:#000000;stroke-width:0.83361775;stroke-linecap:round;stroke-linejoin:miter;stroke-opacity:1"
       d="m 255.30705,1038.2592 a 1.2504267,1.2504267 0 0 1 -1.25042,1.2504 1.2504267,1.2504267 0 0 1 -1.25043,-1.2504 1.2504267,1.2504267 0 0 1 1.25043,-1.2505 1.2504267,1.2504267 0 0 1 1.25042,1.2505 z m -12.0003,12.0944 a 1.2504267,1.2504267 0 0 1 -1.25043,1.2505 1.2504267,1.2504267 0 0 1 -1.25043,-1.2505 1.2504267,1.2504267 0 0 1 1.25043,-1.2504 1.2504267,1.2504267 0 0 1 1.25043,1.2504 z M 242,1038.3622 l 0,10.7422 c 0.0189,-0 0.0377,-0 0.0566,-0 0.69102,3e-4 1.25084,0.561 1.25,1.252 l 0,0.01 10.69336,0 0,-10.8555 c -0.62775,-0.028 -1.13688,-0.5183 -1.18945,-1.1445 z" />
  </g>
</svg>
